<svg width="24" height="24" viewBox="0 0 24 24" fill="none" xmlns="http://www.w3.org/2000/svg">
<path fill-rule="evenodd" clip-rule="evenodd" d="M19.9582 5.07637C17.9068 2.99934 14.5849 2.99953 12.5337 5.07694C12.3928 5.21966 12.2006 5.29999 12 5.29999C11.7994 5.29999 11.6072 5.21966 11.4663 5.07694C10.4395 4.03704 9.0989 3.51999 7.75499 3.51999C6.41028 3.51999 5.06523 4.03757 4.04174 5.07637L4.0409 5.07722C1.98469 7.15755 1.98469 10.5324 4.0409 12.6128L12 20.6656L19.9582 12.6136C19.9583 12.6135 19.9584 12.6135 19.9585 12.6134C20.9844 11.572 21.5 10.2112 21.5 8.84499C21.5 7.47869 20.9843 6.11775 19.9582 5.07637ZM12 3.53645C14.6539 1.3619 18.5588 1.52409 21.0262 4.02304L21.0267 4.02361C22.3407 5.35722 23 7.10129 23 8.84499C23 10.5887 22.3407 12.3328 21.0267 13.6664L12.5334 22.2597C12.3925 22.4023 12.2004 22.4825 12 22.4825C11.7996 22.4825 11.6075 22.4023 11.4666 22.2597L2.97408 13.6672C2.97408 13.6672 2.97408 13.6672 2.97408 13.6672C0.340449 11.0027 0.340301 6.68788 2.97366 4.02318C4.29012 2.68726 6.02489 2.01999 7.75499 2.01999C9.26119 2.01999 10.7661 2.52565 12 3.53645Z" fill="currentColor"></path>
</svg>
