<svg width="164" height="52" viewBox="0 0 164 52" fill="none" xmlns="http://www.w3.org/2000/svg">
<path d="M36.4141 19.0668L19.0604 36.3998L15.5898 32.934L22.531 26L15.5898 19.0668L19.0604 15.6002L26.0024 22.5334L32.9435 15.6002L36.4141 19.0668Z" fill="#FF0000"/>
<path d="M30.8115 30.8036C31.9892 29.6273 33.8986 29.6271 35.0764 30.8036C36.2539 31.9799 36.254 33.8874 35.0764 35.0637C33.8986 36.24 31.9892 36.2399 30.8115 35.0637C29.6337 33.8874 29.6338 31.9799 30.8115 30.8036Z" fill="#FF0000"/>
<path fill-rule="evenodd" clip-rule="evenodd" d="M26 0C40.3594 0 52 11.6406 52 26C52 40.3594 40.3594 52 26 52C11.6406 52 0 40.3594 0 26C0 11.6406 11.6406 0 26 0ZM26 3.25C13.4355 3.25 3.25 13.4355 3.25 26C3.25 38.5645 13.4355 48.75 26 48.75C38.5645 48.75 48.75 38.5645 48.75 26C48.75 13.4355 38.5645 3.25 26 3.25Z" fill="#FF0000"/>
<path fill-rule="evenodd" clip-rule="evenodd" d="M67.6956 33.8698H63.5986L66.5512 27.9196L60.875 18.0326H65.2008L68.6111 24.2543L71.541 18.0326H75.6376L67.6956 33.8698ZM84.609 33.8698L83.9913 31.9466H78.2924L77.6744 33.8698H73.7148L79.4367 18.0326H82.8467L88.6373 33.8698H84.609ZM81.1531 22.5576L79.1848 29.0734H83.0758L81.1531 22.5576ZM107.267 33.8698H103.651V24.0507L100.195 33.8698H97.4488L93.8783 24.0507V33.8698H90.2618V18.0326H94.5417L98.8218 29.0507L103.056 18.0326H107.267L107.267 33.8698ZM110.792 33.8698V18.0326H114.546V33.8698H110.792ZM150.967 21.9518L148.488 23.387L146.067 19.1266L148.546 17.6914L150.967 21.9518ZM161.445 19.0571L158.893 23.6823L156.396 22.2789L158.948 17.6537L161.445 19.0571ZM152.382 17.0454H155.239V23.8809H162.263V26.7654H157.332L162.669 32.1159L160.655 34.1623L155.239 28.7327V34.857H152.382V28.6851L146.847 34.1755L144.844 32.1184L150.24 26.7654H145.377V23.8809H152.382V17.0454ZM124.783 18.0349H141.327V20.8497H136.746V27.313L138.314 22.2029L141.092 23.0058L139.058 29.6378L136.747 28.9691V31.0525H141.873V33.8675H124.048V31.0525H129.14V29.0271L126.761 29.782L124.528 23.142L127.283 22.2678L129.14 27.7888V20.8499H124.783V18.0349ZM132.039 31.0527H133.848V20.8497H132.039V31.0527Z" fill="#FF0000"/>
</svg>
